<svg width="14" height="14"  fill="none" xmlns="http://www.w3.org/2000/svg">
<defs>
<linearGradient id="paint0_linear_2_166" x1="-4.87533" y1="7.00001" x2="19.4618" y2="7.00001" gradientUnits="userSpaceOnUse">
<stop stop-color="#3CA3EE"/>
<stop offset="1" stop-color="#4C42C4"/>
</linearGradient>
</defs>
<path d="M13.3633 0.109375H8.93359C8.87559 0.109375 8.82812 0.156836 8.82812 0.214844V1.19922C8.82812 1.25723 8.87559 1.30469 8.93359 1.30469H11.7531L8.2498 4.80801C7.3709 4.13125 6.29863 3.76562 5.17188 3.76562C3.82012 3.76562 2.54746 4.29297 1.59297 5.24922C0.638476 6.20547 0.109375 7.47637 0.109375 8.82812C0.109375 10.1799 0.636719 11.4525 1.59297 12.407C2.54746 13.3633 3.82012 13.8906 5.17188 13.8906C6.52363 13.8906 7.79629 13.3633 8.75078 12.407C9.70703 11.4525 10.2344 10.1799 10.2344 8.82812C10.2344 7.70137 9.86875 6.63262 9.19375 5.75371L12.6953 2.25215V5.06641C12.6953 5.12441 12.7428 5.17188 12.8008 5.17188H13.7852C13.8432 5.17188 13.8906 5.12441 13.8906 5.06641V0.636719C13.8906 0.34668 13.6533 0.109375 13.3633 0.109375ZM5.17188 12.5547C3.11699 12.5547 1.44531 10.883 1.44531 8.82812C1.44531 6.77324 3.11699 5.10156 5.17188 5.10156C7.22676 5.10156 8.89844 6.77324 8.89844 8.82812C8.89844 10.883 7.22676 12.5547 5.17188 12.5547Z" fill="#EEEEEE"/>
<path d="M13.3633 0.109375H8.93359C8.87559 0.109375 8.82812 0.156836 8.82812 0.214844V1.19922C8.82812 1.25723 8.87559 1.30469 8.93359 1.30469H11.7531L8.2498 4.80801C7.3709 4.13125 6.29863 3.76562 5.17188 3.76562C3.82012 3.76562 2.54746 4.29297 1.59297 5.24922C0.638476 6.20547 0.109375 7.47637 0.109375 8.82812C0.109375 10.1799 0.636719 11.4525 1.59297 12.407C2.54746 13.3633 3.82012 13.8906 5.17188 13.8906C6.52363 13.8906 7.79629 13.3633 8.75078 12.407C9.70703 11.4525 10.2344 10.1799 10.2344 8.82812C10.2344 7.70137 9.86875 6.63262 9.19375 5.75371L12.6953 2.25215V5.06641C12.6953 5.12441 12.7428 5.17188 12.8008 5.17188H13.7852C13.8432 5.17188 13.8906 5.12441 13.8906 5.06641V0.636719C13.8906 0.34668 13.6533 0.109375 13.3633 0.109375ZM5.17188 12.5547C3.11699 12.5547 1.44531 10.883 1.44531 8.82812C1.44531 6.77324 3.11699 5.10156 5.17188 5.10156C7.22676 5.10156 8.89844 6.77324 8.89844 8.82812C8.89844 10.883 7.22676 12.5547 5.17188 12.5547Z" fill="url(#paint0_linear_2_166)"/>

</svg>
